<svg width="633" height="453" viewBox="0 0 633 453" fill="none" xmlns="http://www.w3.org/2000/svg">
<path d="M209.562 450.682C199.554 452.589 189.427 453.222 179.324 452.573C154.964 450.981 131.007 441.813 110.533 424.579C101.455 416.936 92.7957 407.547 88.0969 394.935C81.7195 377.807 83.9498 356.124 93.0568 341.205C96.3787 335.824 100.465 331.314 105.095 327.917C105.781 327.416 106.482 326.933 107.191 326.47C114.907 321.45 123.573 319.397 132.163 320.555C146.767 322.62 160.245 334.161 168.032 350.286C174.968 364.664 177.385 381.628 178.81 398.631C179.078 401.835 179.309 405.048 179.533 408.242C178.292 417.496 176.34 426.566 173.708 435.319C173.574 435.746 173.464 436.184 173.379 436.632C174.871 440.82 176.291 445.046 177.638 449.311C178.904 450.2 180.323 450.665 181.763 450.662H209.502L209.562 450.682Z" fill="white"/>
<path d="M177.064 451.502C176.88 451.608 176.682 451.666 176.48 451.672C176.279 451.678 176.079 451.632 175.891 451.536C175.704 451.441 175.533 451.299 175.389 451.117C175.244 450.936 175.129 450.719 175.05 450.479C174.931 450.112 174.819 449.746 174.699 449.379C173.625 446.001 172.499 442.656 171.321 439.343C156.233 396.589 133.729 358.912 105.557 329.24C105.396 329.093 105.268 328.893 105.187 328.66C105.105 328.428 105.074 328.171 105.095 327.918C105.136 327.627 105.227 327.352 105.362 327.113C105.497 326.874 105.671 326.678 105.873 326.538C106.074 326.399 106.298 326.321 106.526 326.309C106.754 326.297 106.982 326.352 107.191 326.47C107.303 326.536 107.409 326.62 107.504 326.721C119.558 339.422 130.615 353.627 140.516 369.132C150.42 384.621 159.14 401.316 166.555 418.982C168.576 423.807 170.495 428.699 172.313 433.659C172.671 434.644 173.029 435.638 173.379 436.631C174.871 440.819 176.291 445.046 177.638 449.311C177.661 449.379 177.683 449.456 177.706 449.524C177.774 449.706 177.812 449.906 177.816 450.109C177.821 450.311 177.791 450.513 177.731 450.701C177.67 450.888 177.579 451.056 177.464 451.194C177.349 451.332 177.213 451.437 177.064 451.502Z" fill="white"/>
<path d="M68.8749 302.954C68.2204 302.955 67.5833 302.682 67.0596 302.174L67.0271 302.142L60.1911 295.371C59.8743 295.057 59.6084 294.666 59.4085 294.219C59.2087 293.772 59.0788 293.279 59.0264 292.767C58.9739 292.255 58.9999 291.735 59.1028 291.237C59.2058 290.738 59.3837 290.271 59.6263 289.861C59.8689 289.451 60.1716 289.107 60.517 288.849C60.8624 288.591 61.2437 288.423 61.6393 288.355C62.0348 288.288 62.4367 288.321 62.8221 288.455C63.2075 288.588 63.5689 288.819 63.8854 289.133L68.3133 293.525L78.7771 275.87C79.0198 275.461 79.3224 275.117 79.6678 274.859C80.0131 274.601 80.3944 274.433 80.7898 274.366C81.1852 274.298 81.587 274.332 81.9723 274.465C82.3576 274.599 82.7188 274.829 83.0353 275.143L82.9702 275.257L83.037 275.145C83.6754 275.78 84.0931 276.716 84.1985 277.749C84.3039 278.782 84.0883 279.826 83.5991 280.654L71.2911 301.42C71.0064 301.899 70.6404 302.286 70.2214 302.552C69.8023 302.818 69.3416 302.955 68.8749 302.954V302.954Z" fill="white"/>
<path d="M325.022 197.82C330.377 197.82 334.718 192.203 334.718 185.275C334.718 178.347 330.377 172.73 325.022 172.73C319.667 172.73 315.326 178.347 315.326 185.275C315.326 192.203 319.667 197.82 325.022 197.82Z" fill="#6C63FF"/>
<path d="M324.061 190.061C323.843 190.061 323.63 189.97 323.456 189.801L323.445 189.79L321.166 187.533C321.06 187.428 320.971 187.298 320.904 187.149C320.838 187 320.794 186.835 320.776 186.665C320.759 186.494 320.767 186.32 320.802 186.154C320.836 185.987 320.895 185.831 320.976 185.695C321.057 185.558 321.158 185.443 321.274 185.357C321.389 185.271 321.516 185.215 321.648 185.193C321.78 185.17 321.914 185.182 322.043 185.226C322.172 185.271 322.292 185.348 322.398 185.454L323.874 186.918L327.361 181.033C327.442 180.896 327.543 180.782 327.658 180.696C327.773 180.61 327.901 180.554 328.032 180.531C328.164 180.509 328.298 180.52 328.427 180.564C328.555 180.609 328.675 180.686 328.781 180.79L328.759 180.828L328.781 180.791C328.994 181.002 329.133 181.315 329.169 181.659C329.204 182.003 329.132 182.351 328.969 182.627L324.866 189.549C324.771 189.709 324.649 189.838 324.51 189.927C324.37 190.015 324.216 190.061 324.061 190.061V190.061Z" fill="white"/>
<path d="M325.022 234.489C330.377 234.489 334.718 228.872 334.718 221.944C334.718 215.016 330.377 209.399 325.022 209.399C319.667 209.399 315.326 215.016 315.326 221.944C315.326 228.872 319.667 234.489 325.022 234.489Z" fill="#6C63FF"/>
<path d="M324.061 226.73C323.843 226.73 323.63 226.639 323.456 226.47L323.445 226.459L321.166 224.202C321.06 224.097 320.971 223.967 320.904 223.818C320.838 223.669 320.794 223.504 320.776 223.334C320.759 223.163 320.767 222.989 320.802 222.823C320.836 222.656 320.895 222.5 320.976 222.364C321.057 222.227 321.158 222.112 321.274 222.026C321.389 221.94 321.516 221.884 321.648 221.862C321.78 221.839 321.914 221.851 322.043 221.895C322.172 221.94 322.292 222.017 322.398 222.123L323.874 223.587L327.361 217.702C327.442 217.565 327.543 217.451 327.658 217.365C327.773 217.279 327.901 217.223 328.032 217.2C328.164 217.178 328.298 217.189 328.427 217.233C328.555 217.278 328.675 217.355 328.781 217.459L328.759 217.497L328.781 217.46C328.994 217.671 329.133 217.984 329.169 218.328C329.204 218.672 329.132 219.02 328.969 219.296L324.866 226.218C324.771 226.378 324.649 226.507 324.51 226.596C324.37 226.684 324.216 226.73 324.061 226.73V226.73Z" fill="white"/>
<path d="M330.243 276.948C335.598 276.948 339.939 271.331 339.939 264.403C339.939 257.475 335.598 251.858 330.243 251.858C324.888 251.858 320.547 257.475 320.547 264.403C320.547 271.331 324.888 276.948 330.243 276.948Z" fill="#6C63FF"/>
<path d="M329.282 269.188C329.064 269.189 328.851 269.098 328.677 268.928L328.666 268.918L326.387 266.661C326.281 266.556 326.192 266.426 326.125 266.277C326.059 266.128 326.015 265.963 325.997 265.793C325.98 265.622 325.988 265.448 326.023 265.282C326.057 265.115 326.116 264.959 326.197 264.822C326.278 264.686 326.379 264.571 326.495 264.485C326.61 264.399 326.737 264.343 326.869 264.32C327.001 264.298 327.135 264.31 327.264 264.354C327.393 264.399 327.513 264.476 327.619 264.581L329.095 266.046L332.583 260.161C332.663 260.024 332.764 259.91 332.879 259.823C332.995 259.737 333.122 259.682 333.253 259.659C333.385 259.637 333.519 259.648 333.648 259.692C333.776 259.737 333.896 259.814 334.002 259.918L333.98 259.956L334.003 259.919C334.215 260.13 334.355 260.443 334.39 260.787C334.425 261.131 334.353 261.479 334.19 261.755L330.087 268.677C329.992 268.837 329.87 268.966 329.731 269.055C329.591 269.143 329.437 269.189 329.282 269.188V269.188Z" fill="white"/>
<path d="M423.742 369.141C423.642 369.141 423.578 369.137 423.556 369.136L411.518 369.137V366.841H423.6C423.879 366.854 429.586 367.062 434.845 358.808C442.681 346.505 449.116 316.05 435.272 240.826C416.657 139.677 432.183 50.3173 439.722 16.593C440.093 14.9246 440.16 13.1672 439.916 11.4598C439.672 9.75235 439.125 8.14169 438.317 6.75502C437.509 5.36835 436.463 4.24367 435.262 3.46986C434.061 2.69604 432.737 2.29431 431.394 2.29637H251.615C250.248 2.29874 248.901 2.71802 247.683 3.52018C246.465 4.32235 245.41 5.4848 244.604 6.91317C241.41 12.5969 237.028 23.5157 234.285 43.2589L232.538 42.853C235.34 22.6809 239.865 11.4408 243.168 5.56316C244.139 3.84203 245.41 2.44131 246.877 1.47471C248.345 0.508102 249.968 0.00285884 251.615 6.24977e-06H431.395C433.012 -0.00200733 434.607 0.482566 436.055 1.41544C437.502 2.34832 438.763 3.70394 439.736 5.3752C440.709 7.04646 441.368 8.98757 441.662 11.0452C441.955 13.1028 441.875 15.2205 441.427 17.231C433.927 50.7804 418.482 139.676 436.999 240.295C451.037 316.576 444.288 347.691 436.155 360.361C430.79 368.717 424.88 369.141 423.742 369.141Z" fill="#FFFEFE"/>
<path d="M391.349 411.049C391.249 411.049 391.186 411.046 391.163 411.044L379.125 411.046V408.749H391.207C391.488 408.761 397.194 408.971 402.452 400.716C410.288 388.414 416.723 357.958 402.879 282.734C384.264 181.585 399.79 92.2256 407.329 58.5014C407.7 56.8329 407.767 55.0755 407.523 53.3681C407.279 51.6607 406.732 50.05 405.924 48.6634C405.117 47.2767 404.071 46.152 402.869 45.3782C401.668 44.6044 400.344 44.2026 399.002 44.2047H219.222C217.855 44.2071 216.508 44.6263 215.29 45.4285C214.072 46.2307 213.017 47.3931 212.211 48.8215C209.018 54.5052 204.635 65.4241 201.892 85.1673L200.145 84.7614C202.947 64.5893 207.473 53.3491 210.776 47.4715C211.746 45.7504 213.017 44.3496 214.485 43.383C215.952 42.4164 217.575 41.9112 219.222 41.9083H399.002C400.619 41.9063 402.215 42.3909 403.662 43.3238C405.11 44.2567 406.37 45.6123 407.343 47.2835C408.316 48.9548 408.975 50.8959 409.269 52.9535C409.562 55.0111 409.482 57.1288 409.034 59.1394C401.534 92.6887 386.089 181.585 404.606 282.203C418.644 358.485 411.896 389.6 403.762 402.27C398.398 410.626 392.487 411.049 391.349 411.049Z" fill="white"/>
<path d="M372.213 324.116C353.693 223.498 369.14 134.595 376.643 101.052C377.09 99.0415 377.17 96.9241 376.876 94.8669C376.582 92.8097 375.922 90.869 374.95 89.1979C373.977 87.5267 372.717 86.1708 371.27 85.2371C369.823 84.3035 368.228 83.8175 366.611 83.8177H186.828C185.181 83.8198 183.559 84.3242 182.092 85.29C180.625 86.2558 179.354 87.6557 178.384 89.3759C171.127 102.287 156.068 145.103 172.887 263.573C181.882 326.953 181.748 370.164 178.809 398.631C177.161 414.659 174.618 426.007 172.313 433.659L172.067 434.47C171.581 436.018 171.328 437.672 171.321 439.343C171.304 441.23 171.596 443.1 172.179 444.83C172.761 446.559 173.62 448.11 174.7 449.379C175.403 450.232 176.2 450.947 177.064 451.502C177.781 451.975 178.54 452.335 179.324 452.573C180.122 452.825 180.941 452.951 181.763 452.949H358.772C358.795 452.949 358.854 452.959 358.959 452.959C360.093 452.959 366.007 452.534 371.37 444.178C379.5 431.507 386.25 400.397 372.213 324.116ZM370.057 442.624C364.799 450.884 359.093 450.672 358.817 450.662H181.763C180.346 450.662 178.95 450.212 177.698 449.352C176.445 448.493 175.375 447.25 174.58 445.731C173.881 444.418 173.411 442.924 173.204 441.353C172.996 439.781 173.056 438.17 173.379 436.631C173.464 436.184 173.574 435.746 173.707 435.319C176.34 426.566 178.292 417.496 179.533 408.242C183.74 378.569 184.523 332.781 174.632 263.158C157.94 145.566 172.701 103.397 179.816 90.7269C180.623 89.3006 181.679 88.14 182.897 87.3387C184.115 86.5374 185.461 86.118 186.828 86.1143H366.611C367.953 86.1131 369.276 86.5153 370.476 87.289C371.677 88.0628 372.722 89.187 373.529 90.5729C374.337 91.9588 374.884 93.5685 375.128 95.275C375.372 96.9814 375.306 98.7378 374.935 100.406C367.395 134.131 351.873 223.498 370.49 324.646C384.333 399.866 377.897 430.321 370.057 442.624Z" fill="white"/>
<path d="M286.803 193.381H194.177C192.294 193.381 190.488 192.413 189.156 190.691C187.825 188.968 187.077 186.632 187.077 184.196C187.077 181.76 187.825 179.423 189.156 177.701C190.488 175.978 192.294 175.01 194.177 175.01H286.803C288.686 175.01 290.492 175.978 291.823 177.701C293.155 179.423 293.903 181.76 293.903 184.196C293.903 186.632 293.155 188.968 291.823 190.691C290.492 192.413 288.686 193.381 286.803 193.381V193.381Z" fill="#6C63FF"/>
<path d="M286.803 232.945H194.177C192.294 232.945 190.488 231.977 189.156 230.255C187.825 228.532 187.077 226.196 187.077 223.76C187.077 221.324 187.825 218.987 189.156 217.265C190.488 215.542 192.294 214.574 194.177 214.574H286.803C288.686 214.574 290.492 215.542 291.823 217.265C293.155 218.987 293.903 221.324 293.903 223.76C293.903 226.196 293.155 228.532 291.823 230.255C290.492 231.977 288.686 232.945 286.803 232.945V232.945Z" fill="#6C63FF"/>
<path d="M294.262 273.474H201.635C199.752 273.474 197.947 272.506 196.615 270.784C195.284 269.061 194.536 266.725 194.536 264.289C194.536 261.853 195.284 259.516 196.615 257.794C197.947 256.071 199.752 255.103 201.635 255.103H294.262C296.145 255.103 297.951 256.071 299.282 257.794C300.614 259.516 301.362 261.853 301.362 264.289C301.362 266.725 300.614 269.061 299.282 270.784C297.951 272.506 296.145 273.474 294.262 273.474V273.474Z" fill="#6C63FF"/>
<path d="M299.483 315.933H206.856C204.974 315.933 203.168 314.965 201.836 313.243C200.505 311.52 199.757 309.184 199.757 306.747C199.757 304.311 200.505 301.975 201.836 300.252C203.168 298.53 204.974 297.562 206.856 297.562H299.483C301.366 297.562 303.172 298.53 304.503 300.252C305.835 301.975 306.583 304.311 306.583 306.747C306.583 309.184 305.835 311.52 304.503 313.243C303.172 314.965 301.366 315.933 299.483 315.933Z" fill="#6C63FF"/>
<path d="M299.522 122.06H232.962C232.029 122.061 231.105 121.825 230.243 121.364C229.38 120.903 228.597 120.226 227.937 119.373C227.277 118.52 226.753 117.507 226.396 116.392C226.039 115.277 225.855 114.082 225.855 112.875C225.855 111.668 226.039 110.473 226.396 109.357C226.753 108.242 227.277 107.229 227.937 106.376C228.597 105.523 229.38 104.847 230.243 104.386C231.105 103.925 232.029 103.688 232.962 103.689H299.522C301.405 103.689 303.211 104.657 304.542 106.38C305.874 108.102 306.622 110.439 306.622 112.875C306.622 115.311 305.874 117.647 304.542 119.37C303.211 121.092 301.405 122.06 299.522 122.06Z" fill="#6C63FF"/>
<path d="M336.21 319.292C341.565 319.292 345.906 313.676 345.906 306.747C345.906 299.819 341.565 294.203 336.21 294.203C330.855 294.203 326.514 299.819 326.514 306.747C326.514 313.676 330.855 319.292 336.21 319.292Z" fill="#477872"/>
<path d="M303.958 357.427H211.332C209.449 357.427 207.643 356.459 206.311 354.736C204.98 353.014 204.232 350.678 204.232 348.241C204.232 345.805 204.98 343.469 206.311 341.746C207.643 340.024 209.449 339.056 211.332 339.056H303.958C305.841 339.056 307.647 340.024 308.978 341.746C310.31 343.469 311.058 345.805 311.058 348.241C311.058 350.678 310.31 353.014 308.978 354.736C307.647 356.459 305.841 357.427 303.958 357.427Z" fill="#6C63FF"/>
<path d="M340.685 360.786C346.04 360.786 350.381 355.17 350.381 348.241C350.381 341.313 346.04 335.697 340.685 335.697C335.33 335.697 330.989 341.313 330.989 348.241C330.989 355.17 335.33 360.786 340.685 360.786Z" fill="#477872"/>
</svg>
